{"title":"Grandma Got Run Over by a Reindeer (2000)","uid":9363449,"size":733409283,"categoryP":"video","categoryS":"movies","magnet":"?xt=urn:btih:e334fb9b29d4291008a2516118e37eb5452deb6a&amp;dn=Grandma+Got+Run+Over+by+a+Reindeer+%282000%29&amp;tr=udp%3A%2F%2Ftracker.openbittorrent.com%3A80&amp;tr=udp%3A%2F%2Fopen.demonii.com%3A1337&amp;tr=udp%3A%2F%2Ftracker.coppersurfer.tk%3A6969&amp;tr=udp%3A%2F%2Fexodus.desync.com%3A6969","seeders":0,"leechers":1,"uploader":"7","files":1,"time":1387373133,"description":"\nGenre\t, Animation, Family\nActors\tElmo Shropshire, Michele Lee, Susan Blu\nPlot\tAs if young Jake Spankenheimer doesn't have enough problems on christmas eve, he has to help his mom and dad prevent mean-spirited cousin Mel from taking ownership of the family store. When... \n\nIMDB link\t\n &lt;a href=&quot;\nhttp://www.imdb.com/title/tt0267536/&quot; rel=&quot;nofollow&quot; target=&quot;_NEW&quot;&gt;\nhttp://www.imdb.com/title/tt0267536/&lt;/a&gt;\n &lt;a href=&quot;\nhttp://lookpic.com/O/i2/1089/M4Od1zwj.jpeg&quot; rel=&quot;nofollow&quot; target=&quot;_NEW&quot;&gt;\nhttp://lookpic.com/O/i2/1089/M4Od1zwj.jpeg&lt;/a&gt;\n\nGeneral\nComplete name                            : Grandma Got Run Over by a Reindeer (2000).avi\nFormat                                   : AVI\nFormat/Info                              : Audio Video Interleave\nFile size                                : 699 MiB\nDuration                                 : 50mn 42s\nOverall bit rate mode                    : Variable\nOverall bit rate                         : 1 929 Kbps\nWriting application                      : VirtualDubMod 1.5.4.1 (build 2178/release)\nWriting library                          : VirtualDubMod build 2178/release\n\nVideo\nID                                       : 0\nFormat                                   : MPEG-4 Visual\nFormat profile                           : Advanced Simple@L5\nFormat settings, BVOP                    : 1\nFormat settings, QPel                    : No\nFormat settings, GMC                     : No warppoints\nFormat settings, Matrix                  : Custom\nCodec ID                                 : XVID\nCodec ID/Hint                            : XviD\nDuration                                 : 50mn 42s\nBit rate                                 : 1 802 Kbps\nWidth                                    : 720 pixels\nHeight                                   : 544 pixels\nDisplay aspect ratio                     : 4:3\nFrame rate                               : 29.970 fps\nColor space                              : YUV\nChroma subsampling                       : 4:2:0\nBit depth                                : 8 bits\nScan type                                : Progressive\nCompression mode                         : Lossy\nBits/(Pixel*Frame)                       : 0.154\nStream size                              : 654 MiB (93%)\nWriting library                          : XviD 1.2.0.dev47 (UTC 2006-11-01)\n\nAudio\nID                                       : 1\nFormat                                   : MPEG Audio\nFormat version                           : Version 1\nFormat profile                           : Layer 3\nMode                                     : Joint stereo\nMode extension                           : MS Stereo\nCodec ID                                 : 55\nCodec ID/Hint                            : MP3\nDuration                                 : 50mn 42s\nBit rate mode                            : Variable\nBit rate                                 : 113 Kbps\nNominal bit rate                         : 128 Kbps\nChannel(s)                               : 2 channels\nSampling rate                            : 48.0 KHz\nCompression mode                         : Lossy\nStream size                              : 40.8 MiB (6%)\nAlignment                                : Aligned on interleaves\nInterleave, duration                     : 24 ms (0.72 video frame)\nInterleave, preload duration             : 163 ms\nWriting library                          : LAME3.97\nEncoding settings                        : -m j -V 4 -q 2 -lowpass 17 --abr 128\nLanguage                                 : English","torrent":{"xt":"urn:btih:e334fb9b29d4291008a2516118e37eb5452deb6a","amp;dn":"Grandma+Got+Run+Over+by+a+Reindeer+%282000%29","amp;tr":["udp%3A%2F%2Ftracker.openbittorrent.com%3A80","udp%3A%2F%2Fopen.demonii.com%3A1337","udp%3A%2F%2Ftracker.coppersurfer.tk%3A6969","udp%3A%2F%2Fexodus.desync.com%3A6969"],"infoHash":"e334fb9b29d4291008a2516118e37eb5452deb6a","infoHashBuffer":{"type":"Buffer","data":[227,52,251,155,41,212,41,16,8,162,81,97,24,227,126,181,69,45,235,106]},"announce":[],"urlList":[]}}